<?xml version="1.0" encoding="utf-8"?>
<!-- Generator: Adobe Illustrator 16.0.4, SVG Export Plug-In . SVG Version: 6.00 Build 0)  -->
<!DOCTYPE svg PUBLIC "-//W3C//DTD SVG 1.1//EN" "http://www.w3.org/Graphics/SVG/1.1/DTD/svg11.dtd">
<svg version="1.1" id="Layer_1" xmlns="http://www.w3.org/2000/svg" xmlns:xlink="http://www.w3.org/1999/xlink" x="0px" y="0px"
	 width="105.368px" height="105.368px" viewBox="0 0 105.368 105.368" enable-background="new 0 0 105.368 105.368"
	 xml:space="preserve">
<g>
	<path fill="#FFFFFF" d="M52.684,0C23.634,0,0,23.634,0,52.684s23.634,52.684,52.684,52.684c29.05,0,52.684-23.634,52.684-52.684
		S81.734,0,52.684,0z M52.684,102.696c-27.576,0-50.011-22.436-50.011-50.012S25.108,2.673,52.684,2.673
		s50.011,22.435,50.011,50.011S80.26,102.696,52.684,102.696z"/>
	<polygon fill="#FFFFFF" points="57.833,35.25 73.931,51.348 28.101,51.348 28.101,54.02 73.931,54.02 57.833,70.118 59.724,72.008 
		79.047,52.684 59.724,33.36 	"/>
</g>
</svg>
