<?xml version="1.0" encoding="utf-8"?>
<!-- Generator: Adobe Illustrator 16.0.4, SVG Export Plug-In . SVG Version: 6.00 Build 0)  -->
<!DOCTYPE svg PUBLIC "-//W3C//DTD SVG 1.1//EN" "http://www.w3.org/Graphics/SVG/1.1/DTD/svg11.dtd">
<svg version="1.1" id="Layer_1" xmlns="http://www.w3.org/2000/svg" xmlns:xlink="http://www.w3.org/1999/xlink" x="0px" y="0px"
	 width="687.092px" height="200.58px" viewBox="0 0 687.092 200.58" enable-background="new 0 0 687.092 200.58"
	 xml:space="preserve">
<g>
	<g>
		<path fill="#AF8D5F" d="M69.029,50.746c-4.236-3.419-6.92-5.838-6.92-5.838V200.58l6.92-11.985V50.746z"/>
		<path fill="#AF8D5F" d="M75.338,55.645v122.019l15.215-26.35V65.785C85.17,62.704,79.875,59.036,75.338,55.645"/>
		<path fill="#AF8D5F" d="M116.129,20.917c0,7.316,6.521,9.492,8.895,9.533c2.271,0.04,9.895-1.385,9.895-10.114
			c0-2.466,2.629-2.466,4.648-1.345c3.111,1.729,4.598,5.507,5.008,7.067c2.635,9.985-2.244,25.809-20.58,25.809
			c-28.178,0-81.799-77.994-117.096-42.699c-18.756,18.755,4.436,55.753,25.426,34.761c3.361-3.364,4.74-11.249,0.629-15.357
			c-6.01-6.006-15.762-5.654-19.174,4.717c-0.598,1.817-2.111,2.283-3.945,1.304c-4.523-2.392-6.23-14.304,0.6-21.134
			c30.461-30.464,89.502,81.19,128.908,41.787c7.633-7.634,10.146-15.498,9.877-24.355c-0.25-8.243-5.004-16.304-15.58-18.776
			C124.318,9.938,116.129,14.134,116.129,20.917"/>
	</g>
	<path fill="#6B6C6C" d="M229.572,151.269c0.245-0.824,0.429-1.514,0.549-2.066c0.122-0.549,0.185-0.943,0.185-1.191
		c0-0.459-0.305-0.777-0.918-0.959c-0.609-0.182-1.712-0.279-3.297-0.279l0.504-1.828h8.843l-5.087,18.557
		c-0.64,2.383-1.171,4.42-1.604,6.1c-0.43,1.676-0.769,3.092-1.03,4.234c-0.258,1.146-0.437,2.088-0.524,2.82
		c-0.097,0.736-0.14,1.344-0.14,1.83c0,0.707,0.105,1.197,0.32,1.467c0.211,0.279,0.49,0.414,0.822,0.414
		c0.672,0,1.397-0.562,2.182-1.695c0.778-1.129,1.471-2.609,2.083-4.447l1.743,0.416c-1.043,3.021-2.179,5.246-3.416,6.664
		c-1.235,1.426-2.635,2.133-4.192,2.133c-1.102,0-1.947-0.35-2.544-1.053c-0.597-0.701-0.895-1.709-0.895-3.023
		c0-0.336,0.028-0.689,0.09-1.055c0.063-0.365,0.139-0.719,0.229-1.055l-0.364-0.088c-1.162,2.012-2.565,3.566-4.219,4.648
		c-1.646,1.084-3.22,1.625-4.717,1.625c-0.798,0-1.528-0.172-2.202-0.523c-0.672-0.355-1.249-0.84-1.74-1.469
		c-0.485-0.625-0.876-1.373-1.169-2.246c-0.288-0.867-0.431-1.838-0.431-2.908c0-1.312,0.201-2.68,0.617-4.105
		c0.411-1.42,0.976-2.793,1.694-4.123c0.718-1.326,1.546-2.59,2.497-3.779c0.944-1.189,1.948-2.236,3.004-3.139
		c1.05-0.906,2.133-1.611,3.251-2.133c1.115-0.518,2.209-0.781,3.277-0.781c1.04,0,1.827,0.201,2.359,0.602
		c0.533,0.395,1.062,1.02,1.579,1.877L229.572,151.269z M223.293,160.661c-0.793,0-1.595,0.25-2.402,0.758
		c-0.812,0.504-1.599,1.176-2.367,2.014c-0.758,0.844-1.47,1.811-2.128,2.91c-0.658,1.102-1.231,2.25-1.717,3.439
		c-0.489,1.191-0.88,2.398-1.169,3.619c-0.293,1.223-0.437,2.367-0.437,3.439c0,1.1,0.276,1.977,0.825,2.635
		c0.551,0.658,1.284,0.986,2.203,0.986c0.7,0,1.418-0.283,2.151-0.85s1.45-1.307,2.152-2.221c0.703-0.92,1.372-1.967,1.997-3.143
		c0.626-1.172,1.173-2.383,1.648-3.619c0.472-1.238,0.85-2.459,1.122-3.668c0.276-1.203,0.41-2.293,0.41-3.277
		c0-0.947-0.182-1.688-0.546-2.223C224.672,160.931,224.089,160.661,223.293,160.661"/>
	<path fill="#6B6C6C" d="M252.984,176.886c-2.657,4.367-5.925,6.551-9.802,6.551c-2.108,0-3.728-0.648-4.86-1.947
		c-1.131-1.297-1.698-3.139-1.698-5.521c0-2.107,0.44-4.217,1.308-6.322c0.873-2.109,2.009-4.01,3.413-5.709
		c1.408-1.695,2.979-3.07,4.723-4.119c1.74-1.059,3.483-1.588,5.225-1.588c1.464,0,2.666,0.379,3.595,1.127
		c0.934,0.75,1.398,1.705,1.398,2.861c0,1.07-0.393,2.17-1.19,3.303c-0.798,1.131-1.869,2.197-3.232,3.207
		c-1.36,1.01-2.946,1.924-4.768,2.752c-1.815,0.82-3.749,1.461-5.792,1.922c-0.065,0.432-0.108,0.848-0.141,1.258
		c-0.032,0.418-0.046,0.838-0.046,1.262c0,3.332,1.18,4.996,3.527,4.996c1.134,0,2.302-0.441,3.511-1.328
		c1.205-0.887,2.327-2.109,3.367-3.668L252.984,176.886z M250.373,160.388c-0.794,0-1.618,0.305-2.475,0.912
		c-0.855,0.615-1.67,1.434-2.447,2.455c-0.785,1.023-1.491,2.189-2.137,3.506c-0.64,1.312-1.158,2.674-1.555,4.078
		c1.465-0.396,2.828-0.918,4.082-1.557c1.246-0.641,2.325-1.369,3.229-2.178c0.897-0.809,1.609-1.666,2.131-2.566
		c0.519-0.9,0.779-1.809,0.779-2.725C251.981,161.028,251.442,160.388,250.373,160.388"/>
	<path fill="#6B6C6C" d="M260.867,165.243c0-1.006,0.193-1.938,0.573-2.797c0.385-0.854,0.913-1.592,1.586-2.221
		c0.669-0.625,1.473-1.115,2.401-1.465c0.938-0.352,1.953-0.529,3.048-0.529c1.466,0,2.688,0.365,3.673,1.104
		c0.975,0.73,1.46,1.682,1.46,2.84c0,0.639-0.174,1.146-0.527,1.51c-0.346,0.369-0.833,0.553-1.441,0.553
		c-0.704,0-1.207-0.205-1.511-0.619c-0.306-0.414-0.565-0.871-0.779-1.375c-0.216-0.502-0.444-0.971-0.69-1.398
		c-0.242-0.426-0.658-0.639-1.237-0.639c-0.669,0-1.234,0.287-1.693,0.867c-0.459,0.584-0.69,1.301-0.69,2.154
		c0,1.01,0.301,1.949,0.895,2.816c0.596,0.873,1.264,1.785,1.993,2.732c0.733,0.941,1.401,1.982,1.995,3.111
		c0.598,1.135,0.897,2.461,0.897,3.99c0,1.039-0.225,2.014-0.668,2.93c-0.444,0.918-1.037,1.719-1.787,2.41
		c-0.75,0.686-1.61,1.229-2.592,1.625c-0.976,0.396-1.988,0.594-3.025,0.594c-1.828,0-3.287-0.395-4.376-1.189
		c-1.084-0.795-1.622-1.832-1.622-3.113c0-0.887,0.202-1.58,0.617-2.088c0.412-0.504,0.969-0.758,1.673-0.758
		c1.311,0,2.062,0.9,2.245,2.705c0.092,0.98,0.253,1.631,0.478,1.945c0.229,0.324,0.698,0.484,1.397,0.484
		c1.102,0,1.973-0.328,2.613-0.986c0.646-0.656,0.965-1.564,0.965-2.729c0-1.221-0.307-2.307-0.918-3.254
		c-0.609-0.943-1.281-1.869-2.016-2.768c-0.732-0.902-1.404-1.859-2.017-2.869C261.175,167.813,260.867,166.618,260.867,165.243"/>
	<path fill="#6B6C6C" d="M281.258,167.858c0.428-1.191,0.734-2.152,0.917-2.889c0.183-0.732,0.28-1.314,0.28-1.74
		c0-0.43-0.076-0.711-0.207-0.852c-0.141-0.137-0.288-0.203-0.44-0.203c-0.337,0-0.699,0.162-1.098,0.482
		c-0.396,0.32-0.793,0.693-1.194,1.119c-0.393,0.43-0.747,0.857-1.051,1.281c-0.31,0.43-0.519,0.768-0.647,1.01l-1.324-0.822
		c0.364-0.672,0.878-1.418,1.536-2.246c0.654-0.824,1.398-1.592,2.219-2.293c0.826-0.703,1.685-1.289,2.571-1.762
		c0.885-0.475,1.722-0.715,2.52-0.715c0.761,0,1.333,0.227,1.718,0.67c0.38,0.443,0.572,1.24,0.572,2.4
		c0,0.895-0.268,2.084-0.802,3.578c-0.534,1.496-1.228,3.424-2.083,5.773l-1.696,4.631c-0.062,0.152-0.146,0.389-0.255,0.707
		c-0.106,0.322-0.211,0.658-0.317,1.012c-0.106,0.35-0.205,0.691-0.279,1.029c-0.075,0.334-0.109,0.613-0.109,0.826
		c0,0.273,0.074,0.521,0.228,0.732c0.15,0.213,0.397,0.32,0.733,0.32c0.458,0,0.933-0.193,1.418-0.57
		c0.485-0.383,0.963-0.834,1.424-1.352c0.456-0.521,0.867-1.049,1.235-1.58c0.364-0.539,0.645-0.957,0.821-1.262l1.381,0.775
		c-0.368,0.736-0.866,1.545-1.49,2.43c-0.626,0.889-1.337,1.701-2.132,2.455c-0.795,0.748-1.664,1.373-2.611,1.875
		c-0.951,0.506-1.927,0.756-2.934,0.756c-0.887,0-1.552-0.229-1.995-0.686c-0.443-0.461-0.662-1.223-0.662-2.291
		c0-0.887,0.144-1.84,0.435-2.863c0.289-1.025,0.711-2.314,1.261-3.869L281.258,167.858z M287.997,150.718
		c-0.765,0-1.425-0.262-1.995-0.779c-0.563-0.52-0.846-1.191-0.846-2.021c0-0.82,0.272-1.523,0.821-2.104
		c0.551-0.578,1.222-0.869,2.02-0.869c0.855,0,1.559,0.291,2.107,0.869c0.553,0.58,0.823,1.27,0.823,2.062
		c0,0.795-0.287,1.469-0.867,2.02C289.478,150.444,288.792,150.718,287.997,150.718"/>
	<path fill="#6B6C6C" d="M311.412,186.327c0,1.312-0.284,2.498-0.844,3.549c-0.564,1.055-1.376,1.955-2.431,2.701
		c-1.054,0.748-2.33,1.324-3.826,1.721c-1.495,0.4-3.179,0.598-5.04,0.598c-1.683,0-3.209-0.154-4.582-0.459
		c-1.377-0.305-2.561-0.748-3.553-1.328c-0.993-0.584-1.755-1.262-2.295-2.041c-0.533-0.779-0.802-1.656-0.802-2.631
		c0-1.254,0.409-2.291,1.217-3.119c0.806-0.824,1.839-1.238,3.094-1.238c0.365,0,0.717,0.047,1.052,0.135
		c0.336,0.094,0.77,0.264,1.287,0.506c-1.715,0.703-2.57,2.033-2.57,3.988c0,1.283,0.651,2.291,1.951,3.027
		c1.298,0.732,3.074,1.1,5.34,1.1c1.215,0,2.351-0.139,3.388-0.418c1.036-0.27,1.933-0.625,2.681-1.049
		c0.752-0.43,1.33-0.908,1.741-1.449c0.414-0.531,0.62-1.059,0.62-1.578c0-0.855-0.514-1.623-1.535-2.314
		c-1.022-0.689-2.471-1.199-4.332-1.533c-3.326-0.58-5.771-1.254-7.33-2.018c-1.562-0.764-2.341-1.83-2.341-3.207
		c0-0.885,0.39-1.635,1.168-2.242c0.784-0.617,2.18-1.225,4.194-1.84l0.096-0.184c-2.324-1.646-3.481-3.771-3.481-6.367
		c0-1.404,0.285-2.744,0.864-4.01c0.584-1.266,1.373-2.383,2.366-3.35c0.988-0.961,2.151-1.715,3.48-2.266
		c1.331-0.547,2.725-0.824,4.193-0.824c2.262,0,4.152,0.824,5.683,2.477c1.433-1.623,2.827-2.432,4.168-2.432
		c0.979,0,1.836,0.301,2.568,0.895c0.732,0.596,1.102,1.293,1.102,2.088c0,0.609-0.211,1.121-0.621,1.533
		c-0.413,0.41-0.924,0.617-1.537,0.617c-0.454,0-0.812-0.1-1.073-0.297c-0.26-0.201-0.482-0.42-0.668-0.664
		c-0.184-0.242-0.39-0.469-0.614-0.666c-0.229-0.199-0.544-0.299-0.94-0.299c-0.214,0-0.415,0.043-0.597,0.117
		c-0.184,0.076-0.519,0.283-1.009,0.619c0.154,0.43,0.263,0.832,0.319,1.211c0.064,0.387,0.096,0.865,0.096,1.447
		c0,3.361-0.936,6.041-2.799,8.043c-1.861,2-4.432,3.123-7.697,3.369c-1.47,0.123-2.517,0.305-3.141,0.551
		c-0.627,0.24-0.942,0.607-0.942,1.096c0,0.645,0.348,1.123,1.034,1.447c0.686,0.32,1.551,0.582,2.589,0.797
		c1.039,0.215,2.158,0.43,3.348,0.641c1.19,0.217,2.306,0.529,3.342,0.941c1.04,0.418,1.9,0.979,2.59,1.695
		C311.073,184.134,311.412,185.103,311.412,186.327 M301.79,174.226c0.733,0,1.451-0.289,2.153-0.869
		c0.703-0.584,1.339-1.35,1.899-2.318c0.565-0.961,1.019-2.051,1.356-3.273c0.335-1.223,0.502-2.479,0.502-3.756
		c0-1.223-0.27-2.191-0.821-2.912c-0.55-0.717-1.273-1.074-2.159-1.074c-0.7,0-1.419,0.311-2.152,0.938
		c-0.73,0.629-1.396,1.43-1.988,2.404c-0.597,0.979-1.08,2.084-1.449,3.324c-0.363,1.236-0.55,2.457-0.55,3.645
		c0,1.158,0.294,2.1,0.872,2.818C300.031,173.868,300.812,174.226,301.79,174.226"/>
	<path fill="#6B6C6C" d="M336.617,160.614c-0.731,0-1.564,0.377-2.497,1.123c-0.929,0.748-1.881,1.742-2.842,2.977
		c-0.962,1.242-1.887,2.658-2.77,4.244c-0.89,1.592-1.638,3.205-2.248,4.859l-3.392,9.162h-4.032l3.393-10.494
		c0.549-1.68,1.008-3.115,1.376-4.311c0.364-1.189,0.66-2.186,0.894-2.998c0.228-0.811,0.388-1.469,0.479-1.973
		s0.137-0.908,0.137-1.215c0-0.822-0.259-1.234-0.777-1.234c-0.341,0-0.732,0.211-1.194,0.641c-0.457,0.43-0.921,0.982-1.397,1.672
		c-0.476,0.688-0.921,1.473-1.351,2.359s-0.798,1.787-1.102,2.701l-1.375-0.682c1.071-3.145,2.27-5.467,3.6-6.969
		c1.329-1.494,2.843-2.246,4.56-2.246c0.975,0,1.673,0.275,2.087,0.826c0.411,0.553,0.616,1.482,0.616,2.795
		c0,1.562-0.258,2.949-0.776,4.172l0.136,0.137c1.559-2.746,3.138-4.758,4.739-6.027c1.607-1.268,3.359-1.902,5.25-1.902
		c1.343,0,2.37,0.324,3.069,0.961c0.705,0.645,1.059,1.562,1.059,2.754c0,0.398-0.044,0.842-0.119,1.33
		c-0.074,0.486-0.203,1.072-0.387,1.762c-0.185,0.689-0.434,1.504-0.754,2.453c-0.327,0.947-0.713,2.107-1.171,3.482
		c-0.702,2.076-1.286,3.822-1.739,5.223c-0.463,1.408-0.691,2.398-0.691,2.98c0,0.457,0.149,0.689,0.458,0.689
		c0.429,0,1.056-0.354,1.881-1.057c0.825-0.701,1.941-1.83,3.346-3.393l1.189,0.643c-0.486,0.92-1.122,1.809-1.902,2.682
		c-0.778,0.867-1.586,1.656-2.431,2.357c-0.836,0.705-1.669,1.273-2.497,1.697c-0.823,0.43-1.537,0.641-2.152,0.641
		c-0.765,0-1.368-0.336-1.808-1.008c-0.443-0.672-0.664-1.559-0.664-2.658c0-0.426,0.037-0.861,0.112-1.307
		c0.075-0.441,0.233-1.074,0.48-1.9c0.246-0.826,0.604-1.93,1.078-3.324c0.477-1.391,1.122-3.23,1.947-5.521
		c0.273-0.789,0.505-1.465,0.688-2.012c0.185-0.551,0.327-1.035,0.437-1.449c0.105-0.408,0.181-0.768,0.228-1.078
		c0.043-0.303,0.067-0.594,0.067-0.865C337.854,161.181,337.44,160.614,336.617,160.614"/>
	<path fill="#6B6C6C" d="M363.33,176.886c-2.659,4.367-5.926,6.551-9.804,6.551c-2.107,0-3.727-0.648-4.86-1.947
		c-1.128-1.297-1.697-3.139-1.697-5.521c0-2.107,0.439-4.217,1.309-6.322c0.87-2.109,2.009-4.01,3.414-5.709
		c1.406-1.695,2.98-3.07,4.721-4.119c1.739-1.059,3.484-1.588,5.225-1.588c1.465,0,2.666,0.379,3.595,1.127
		c0.934,0.75,1.398,1.705,1.398,2.861c0,1.07-0.394,2.17-1.191,3.303c-0.798,1.131-1.868,2.197-3.229,3.207
		c-1.362,1.01-2.95,1.924-4.768,2.752c-1.818,0.82-3.751,1.461-5.794,1.922c-0.065,0.432-0.107,0.848-0.141,1.258
		c-0.031,0.418-0.048,0.838-0.048,1.262c0,3.332,1.181,4.996,3.528,4.996c1.134,0,2.303-0.441,3.511-1.328
		c1.203-0.887,2.326-2.109,3.366-3.668L363.33,176.886z M360.719,160.388c-0.794,0-1.62,0.305-2.473,0.912
		c-0.858,0.615-1.675,1.434-2.449,2.455c-0.787,1.023-1.49,2.189-2.138,3.506c-0.641,1.312-1.157,2.674-1.555,4.078
		c1.466-0.396,2.828-0.918,4.082-1.557c1.248-0.641,2.326-1.369,3.229-2.178c0.898-0.809,1.609-1.666,2.132-2.566
		c0.519-0.9,0.778-1.809,0.778-2.725C362.326,161.028,361.787,160.388,360.719,160.388"/>
	<path fill="#6B6C6C" d="M368.648,165.06c0.337-0.76,0.847-1.547,1.537-2.359c0.688-0.811,1.434-1.541,2.245-2.199
		c0.811-0.654,1.627-1.203,2.451-1.627c0.825-0.43,1.539-0.645,2.155-0.645c0.733,0,1.266,0.279,1.6,0.83
		c0.338,0.551,0.505,1.438,0.505,2.66c0,0.486-0.021,0.959-0.064,1.418c-0.051,0.453-0.134,0.992-0.256,1.602l0.14,0.139
		c0.368-0.887,0.885-1.754,1.557-2.609c0.672-0.859,1.4-1.611,2.182-2.268c0.777-0.658,1.568-1.197,2.379-1.609
		c0.809-0.412,1.566-0.619,2.27-0.619c0.886,0,1.623,0.283,2.224,0.848c0.597,0.568,0.89,1.262,0.89,2.086
		c0,0.799-0.249,1.457-0.754,1.973c-0.504,0.52-1.153,0.779-1.948,0.779c-0.489,0-0.88-0.096-1.169-0.277
		c-0.29-0.182-0.539-0.371-0.758-0.572c-0.215-0.197-0.411-0.389-0.594-0.572c-0.182-0.184-0.41-0.273-0.688-0.273
		c-0.576,0-1.255,0.389-2.013,1.166c-0.77,0.781-1.559,1.842-2.388,3.189c-0.821,1.34-1.642,2.916-2.451,4.715
		c-0.812,1.805-1.549,3.746-2.221,5.822l-2.062,6.326h-4.264l2.979-9.49c0.582-1.828,1.06-3.354,1.445-4.561
		c0.38-1.203,0.679-2.209,0.894-3.02c0.212-0.812,0.358-1.447,0.438-1.9c0.075-0.461,0.111-0.855,0.111-1.197
		c0-0.668-0.229-1.006-0.688-1.006c-0.307,0-0.679,0.117-1.122,0.365c-0.442,0.246-0.874,0.551-1.307,0.918
		c-0.429,0.367-0.833,0.779-1.213,1.236c-0.386,0.461-0.668,0.904-0.85,1.33L368.648,165.06z"/>
	<path fill="#6B6C6C" d="M419.06,147.235c1.862,0,3.37,0.475,4.514,1.42c1.148,0.945,1.719,2.199,1.719,3.758
		c0,0.732-0.14,1.352-0.411,1.855c-0.277,0.504-0.643,0.805-1.101,0.895c-0.519-1.164-1.241-2.07-2.151-2.729
		c-0.918-0.656-1.954-0.982-3.121-0.982c-1.404,0-2.558,0.465-3.459,1.395c-0.9,0.936-1.35,2.131-1.35,3.6
		c0,1.557,0.517,2.506,1.557,2.84c0.733,0.248,1.349,0.467,1.834,0.66c0.489,0.205,0.869,0.42,1.146,0.648
		c0.272,0.229,0.467,0.475,0.573,0.732c0.107,0.262,0.16,0.57,0.16,0.939c0,0.672-0.191,1.189-0.57,1.559
		c-0.388,0.369-0.93,0.553-1.629,0.553c-0.642,0-1.16-0.141-1.559-0.42c-0.398-0.273-0.765-0.572-1.102-0.891
		c-0.335-0.32-0.686-0.621-1.051-0.893c-0.368-0.277-0.829-0.41-1.381-0.41c-1.067,0-1.951,0.525-2.65,1.58
		c-0.709,1.053-1.059,2.375-1.059,3.963c0,1.59,0.344,3.068,1.028,4.445c0.692,1.371,1.638,2.572,2.844,3.596
		c1.207,1.025,2.622,1.828,4.242,2.408c1.613,0.58,3.355,0.869,5.225,0.869c1.709,0,3.339-0.273,4.875-0.822
		c1.547-0.553,2.898-1.301,4.061-2.248c1.16-0.943,2.076-2.045,2.748-3.299s1.007-2.58,1.007-3.988c0-0.949-0.168-1.838-0.501-2.682
		c-0.335-0.838-0.787-1.564-1.354-2.172c-0.567-0.615-1.236-1.094-2.017-1.447c-0.777-0.348-1.625-0.529-2.544-0.529
		c-1.497,0-2.702,0.379-3.621,1.125c-0.915,0.746-1.371,1.748-1.371,3.002c0,0.92,0.231,1.688,0.706,2.312
		c0.478,0.629,1.062,0.939,1.767,0.939s1.054-0.365,1.054-1.1c0-0.215-0.014-0.449-0.046-0.711
		c-0.033-0.258-0.043-0.498-0.043-0.707c0-0.518,0.163-0.959,0.501-1.307c0.336-0.354,0.764-0.527,1.283-0.527
		c0.64,0,1.189,0.271,1.65,0.82c0.457,0.551,0.686,1.223,0.686,2.021c0,0.549-0.12,1.061-0.368,1.537
		c-0.238,0.471-0.574,0.885-1.004,1.232c-0.433,0.354-0.933,0.635-1.514,0.852c-0.583,0.213-1.191,0.32-1.834,0.32
		c-0.729,0-1.412-0.146-2.038-0.438c-0.625-0.293-1.162-0.695-1.604-1.213c-0.444-0.52-0.796-1.137-1.056-1.855
		c-0.257-0.719-0.389-1.504-0.389-2.359c0-1.102,0.222-2.107,0.665-3.027c0.443-0.918,1.054-1.699,1.832-2.357
		c0.78-0.658,1.709-1.17,2.799-1.535c1.082-0.369,2.281-0.551,3.592-0.551h4.817c1.829,0,3.296-0.385,4.4-1.145
		c1.095-0.768,1.645-1.791,1.645-3.072c0-0.795-0.239-1.49-0.733-2.084c-0.489-0.596-1.04-0.896-1.647-0.896
		c-0.519,0-0.839,0.172-0.962,0.508c-0.124,0.336-0.229,0.693-0.32,1.072c-0.09,0.387-0.252,0.744-0.48,1.08
		c-0.231,0.334-0.728,0.504-1.49,0.504c-0.737,0-1.308-0.205-1.719-0.623c-0.41-0.41-0.618-0.982-0.618-1.715
		c0-1.008,0.383-1.809,1.147-2.406c0.762-0.594,1.798-0.893,3.111-0.893c0.946,0,1.828,0.168,2.64,0.504
		c0.803,0.336,1.504,0.793,2.083,1.375c0.579,0.58,1.042,1.277,1.377,2.084c0.336,0.811,0.5,1.688,0.5,2.639
		c0,1.068-0.219,2.051-0.661,2.951c-0.442,0.906-1.058,1.688-1.838,2.359c-0.778,0.676-1.709,1.201-2.79,1.582
		c-1.088,0.383-2.271,0.588-3.553,0.619l-0.091,0.186c0.79,0.486,1.44,1.357,1.944,2.613c0.506,1.25,0.758,2.658,0.758,4.215
		c0,1.957-0.439,3.789-1.307,5.5c-0.873,1.711-2.053,3.201-3.554,4.469c-1.494,1.264-3.267,2.268-5.318,3
		c-2.044,0.73-4.226,1.098-6.552,1.098c-2.29,0-4.41-0.352-6.367-1.051c-1.955-0.705-3.65-1.666-5.086-2.889
		c-1.438-1.223-2.564-2.664-3.367-4.33c-0.812-1.668-1.219-3.475-1.219-5.43c0-2.691,0.692-4.971,2.087-6.852
		c1.392-1.881,3.274-3.123,5.661-3.736c-0.246-0.52-0.439-1.182-0.573-1.992c-0.137-0.811-0.205-1.584-0.205-2.312
		c0-1.135,0.196-2.162,0.598-3.1c0.392-0.928,0.949-1.729,1.672-2.4c0.714-0.674,1.567-1.191,2.562-1.559
		C416.775,147.417,417.869,147.235,419.06,147.235"/>
	<path fill="#6B6C6C" d="M461.352,167.858c0.428-1.191,0.736-2.152,0.918-2.889c0.182-0.732,0.279-1.314,0.279-1.74
		c0-0.43-0.075-0.711-0.208-0.852c-0.14-0.137-0.285-0.203-0.439-0.203c-0.336,0-0.7,0.162-1.098,0.482
		c-0.396,0.32-0.792,0.693-1.194,1.119c-0.393,0.43-0.747,0.857-1.051,1.281c-0.311,0.43-0.517,0.768-0.642,1.01l-1.329-0.822
		c0.364-0.672,0.877-1.418,1.534-2.246c0.654-0.824,1.398-1.592,2.221-2.293c0.825-0.703,1.684-1.289,2.571-1.762
		c0.886-0.475,1.722-0.715,2.52-0.715c0.761,0,1.331,0.227,1.719,0.67c0.379,0.443,0.57,1.24,0.57,2.4
		c0,0.895-0.267,2.084-0.799,3.578c-0.538,1.496-1.229,3.424-2.084,5.773l-1.697,4.631c-0.062,0.152-0.147,0.389-0.256,0.707
		c-0.106,0.322-0.211,0.658-0.317,1.012c-0.106,0.35-0.204,0.691-0.279,1.029c-0.075,0.334-0.109,0.613-0.109,0.826
		c0,0.273,0.075,0.521,0.229,0.732c0.15,0.213,0.396,0.32,0.733,0.32c0.456,0,0.931-0.193,1.418-0.57
		c0.488-0.383,0.962-0.834,1.423-1.352c0.457-0.521,0.869-1.049,1.237-1.58c0.366-0.539,0.642-0.957,0.821-1.262l1.378,0.775
		c-0.368,0.736-0.864,1.545-1.489,2.43c-0.624,0.889-1.337,1.701-2.13,2.455c-0.797,0.748-1.666,1.373-2.613,1.875
		c-0.949,0.506-1.928,0.756-2.934,0.756c-0.887,0-1.552-0.229-1.995-0.686c-0.442-0.461-0.661-1.223-0.661-2.291
		c0-0.887,0.144-1.84,0.433-2.863c0.29-1.025,0.712-2.314,1.262-3.869L461.352,167.858z M468.091,150.718
		c-0.764,0-1.426-0.262-1.994-0.779c-0.563-0.52-0.847-1.191-0.847-2.021c0-0.82,0.272-1.523,0.822-2.104
		c0.549-0.578,1.222-0.869,2.019-0.869c0.854,0,1.559,0.291,2.11,0.869c0.55,0.58,0.822,1.27,0.822,2.062
		c0,0.795-0.291,1.469-0.87,2.02C469.57,150.444,468.886,150.718,468.091,150.718"/>
	<path fill="#6B6C6C" d="M479.964,151.313c0.154-0.553,0.304-1.105,0.458-1.674c0.15-0.564,0.232-0.986,0.232-1.26
		c0-1.068-1.166-1.605-3.488-1.605l0.367-1.375l8.39-0.41l-8.206,30.107c-0.243,0.826-0.429,1.553-0.551,2.176
		c-0.117,0.627-0.183,1.156-0.183,1.582c0,0.279,0.075,0.525,0.233,0.732c0.154,0.213,0.392,0.324,0.729,0.324
		c0.488,0,1.01-0.207,1.562-0.617c0.546-0.412,1.075-0.904,1.579-1.469c0.505-0.566,0.954-1.148,1.352-1.74
		c0.399-0.598,0.686-1.062,0.868-1.398l1.379,0.777c-0.46,1.041-1.054,2.039-1.79,3c-0.733,0.961-1.511,1.812-2.333,2.549
		c-0.826,0.734-1.658,1.318-2.5,1.762c-0.842,0.441-1.61,0.662-2.316,0.662c-1.066,0-1.854-0.23-2.361-0.684
		c-0.5-0.461-0.751-1.223-0.751-2.291c0-0.615,0.091-1.438,0.272-2.477c0.187-1.037,0.507-2.463,0.965-4.26L479.964,151.313z"/>
	<path fill="#6B6C6C" d="M494.766,151.313c0.153-0.553,0.304-1.105,0.458-1.674c0.149-0.564,0.23-0.986,0.23-1.26
		c0-1.068-1.165-1.605-3.488-1.605l0.369-1.375l8.39-0.41l-8.209,30.107c-0.242,0.826-0.428,1.553-0.55,2.176
		c-0.119,0.627-0.181,1.156-0.181,1.582c0,0.279,0.075,0.525,0.231,0.732c0.153,0.213,0.393,0.324,0.729,0.324
		c0.488,0,1.011-0.207,1.562-0.617c0.546-0.412,1.074-0.904,1.579-1.469c0.502-0.566,0.954-1.148,1.35-1.74
		c0.399-0.598,0.688-1.062,0.87-1.398l1.379,0.777c-0.462,1.041-1.055,2.039-1.791,3c-0.733,0.961-1.512,1.812-2.333,2.549
		c-0.826,0.734-1.66,1.318-2.499,1.762c-0.844,0.441-1.612,0.662-2.315,0.662c-1.069,0-1.855-0.23-2.363-0.684
		c-0.499-0.461-0.751-1.223-0.751-2.291c0-0.615,0.089-1.438,0.272-2.477c0.186-1.037,0.509-2.463,0.966-4.26L494.766,151.313z"/>
	<path fill="#6B6C6C" d="M508.929,180.138c0.487,0,1.129-0.342,1.923-1.029c0.795-0.689,1.634-1.609,2.521-2.752
		c0.886-1.146,1.751-2.451,2.589-3.918c0.842-1.463,1.554-2.99,2.133-4.58l3.389-9.168h4.266l-3.391,10.498
		c-0.49,1.523-0.906,2.832-1.24,3.916c-0.337,1.088-0.611,1.996-0.826,2.752c-0.214,0.746-0.364,1.357-0.454,1.83
		c-0.098,0.475-0.139,0.85-0.139,1.123c0,0.797,0.272,1.189,0.822,1.189c0.304,0,0.672-0.145,1.101-0.434
		c0.428-0.293,0.864-0.686,1.307-1.189c0.443-0.508,0.869-1.07,1.285-1.697c0.41-0.625,0.771-1.291,1.075-1.99l1.372,0.682
		c-0.394,1.008-0.912,2-1.56,2.961c-0.638,0.959-1.331,1.826-2.083,2.586c-0.748,0.764-1.535,1.373-2.357,1.834
		c-0.823,0.457-1.635,0.686-2.432,0.686c-0.943,0-1.586-0.334-1.923-1.006c-0.335-0.672-0.503-1.635-0.503-2.889
		c0-0.52,0.024-1.078,0.066-1.674c0.047-0.594,0.129-1.18,0.251-1.762l-0.132-0.139c-0.83,1.469-1.631,2.676-2.408,3.619
		c-0.781,0.947-1.534,1.715-2.271,2.293c-0.733,0.58-1.45,0.984-2.151,1.219c-0.704,0.229-1.394,0.338-2.062,0.338
		c-1.438,0-2.441-0.393-3.007-1.189c-0.56-0.795-0.843-1.773-0.843-2.93c0-1.289,0.239-2.701,0.732-4.24
		c0.489-1.543,1.007-3.002,1.559-4.379c0.55-1.379,1.014-2.537,1.396-3.484c0.381-0.945,0.688-1.74,0.917-2.383
		c0.229-0.639,0.399-1.158,0.507-1.555c0.104-0.4,0.157-0.723,0.157-0.963c0-0.119-0.025-0.238-0.067-0.344
		c-0.047-0.109-0.16-0.162-0.348-0.162c-0.396,0-0.969,0.354-1.716,1.057c-0.75,0.701-1.766,1.83-3.048,3.385l-1.19-0.639
		c0.454-0.887,1.037-1.77,1.741-2.656c0.701-0.887,1.447-1.682,2.244-2.385c0.793-0.699,1.621-1.268,2.477-1.693
		c0.854-0.43,1.651-0.646,2.381-0.646c1.529,0,2.291,0.885,2.291,2.658c0,1.074-0.297,2.457-0.891,4.15
		c-0.596,1.699-1.369,3.721-2.312,6.072c-0.616,1.498-1.118,2.842-1.518,4.035c-0.396,1.191-0.593,2.275-0.593,3.252
		c0,0.641,0.091,1.09,0.272,1.352C508.427,180.009,508.651,180.138,508.929,180.138"/>
	<path fill="#6B6C6C" d="M532.34,165.243c0-1.006,0.193-1.938,0.571-2.797c0.387-0.854,0.916-1.592,1.587-2.221
		c0.669-0.625,1.473-1.115,2.404-1.465c0.935-0.352,1.95-0.529,3.048-0.529c1.464,0,2.688,0.365,3.67,1.104
		c0.976,0.73,1.461,1.682,1.461,2.84c0,0.639-0.174,1.146-0.528,1.51c-0.346,0.369-0.833,0.553-1.44,0.553
		c-0.705,0-1.208-0.205-1.512-0.619s-0.564-0.871-0.779-1.375c-0.215-0.502-0.443-0.971-0.689-1.398
		c-0.243-0.426-0.658-0.639-1.237-0.639c-0.668,0-1.236,0.287-1.693,0.867c-0.458,0.584-0.69,1.301-0.69,2.154
		c0,1.01,0.3,1.949,0.894,2.816c0.598,0.873,1.266,1.785,1.995,2.732c0.732,0.941,1.401,1.982,1.994,3.111
		c0.597,1.135,0.897,2.461,0.897,3.99c0,1.039-0.226,2.014-0.67,2.93c-0.442,0.918-1.036,1.719-1.786,2.41
		c-0.751,0.686-1.608,1.229-2.592,1.625c-0.975,0.396-1.987,0.594-3.022,0.594c-1.83,0-3.289-0.395-4.378-1.189
		c-1.084-0.795-1.623-1.832-1.623-3.113c0-0.887,0.204-1.58,0.618-2.088c0.411-0.504,0.968-0.758,1.673-0.758
		c1.311,0,2.061,0.9,2.244,2.705c0.089,0.98,0.254,1.631,0.479,1.945c0.227,0.324,0.697,0.484,1.397,0.484
		c1.1,0,1.973-0.328,2.611-0.986c0.647-0.656,0.966-1.564,0.966-2.729c0-1.221-0.307-2.307-0.918-3.254
		c-0.608-0.943-1.28-1.869-2.017-2.768c-0.731-0.902-1.405-1.859-2.015-2.869C532.646,167.813,532.34,166.618,532.34,165.243"/>
	<path fill="#6B6C6C" d="M557.495,162.495l-3.802,12.604c-0.521,1.646-0.793,2.902-0.826,3.756c0,0.275,0.073,0.521,0.208,0.732
		c0.141,0.215,0.375,0.322,0.711,0.322c0.552,0,1.127-0.203,1.741-0.619c0.614-0.412,1.2-0.9,1.762-1.465
		c0.568-0.564,1.073-1.146,1.516-1.74c0.442-0.598,0.771-1.061,0.982-1.398l1.33,0.779c-0.518,1.037-1.177,2.037-1.971,2.998
		c-0.795,0.963-1.632,1.812-2.518,2.545c-0.887,0.738-1.78,1.322-2.682,1.768c-0.902,0.441-1.718,0.66-2.451,0.66
		c-1.069,0-1.842-0.229-2.316-0.688c-0.473-0.461-0.711-1.219-0.711-2.289c0-0.611,0.107-1.439,0.32-2.475
		c0.212-1.039,0.579-2.463,1.105-4.26l3.385-11.23h-3.938l0.596-2.107h3.988l2.382-7.885h4.214l-2.381,7.885h4.997l-0.641,2.107
		H557.495z"/>
	<path fill="#6B6C6C" d="M564.875,165.06c0.338-0.76,0.848-1.547,1.538-2.359c0.687-0.811,1.433-1.541,2.245-2.199
		c0.812-0.654,1.626-1.203,2.451-1.627c0.825-0.43,1.54-0.645,2.155-0.645c0.733,0,1.266,0.279,1.6,0.83
		c0.338,0.551,0.505,1.438,0.505,2.66c0,0.486-0.021,0.959-0.064,1.418c-0.05,0.453-0.132,0.992-0.257,1.602l0.14,0.139
		c0.367-0.887,0.885-1.754,1.557-2.609c0.673-0.859,1.401-1.611,2.183-2.268c0.777-0.658,1.568-1.197,2.38-1.609
		c0.809-0.412,1.564-0.619,2.269-0.619c0.886,0,1.623,0.283,2.223,0.848c0.598,0.568,0.891,1.262,0.891,2.086
		c0,0.799-0.25,1.457-0.754,1.973c-0.505,0.52-1.152,0.779-1.947,0.779c-0.491,0-0.88-0.096-1.17-0.277s-0.539-0.371-0.757-0.572
		c-0.215-0.197-0.412-0.389-0.594-0.572c-0.183-0.184-0.411-0.273-0.688-0.273c-0.577,0-1.256,0.389-2.013,1.166
		c-0.77,0.781-1.559,1.842-2.387,3.189c-0.824,1.34-1.643,2.916-2.453,4.715c-0.811,1.805-1.548,3.746-2.219,5.822l-2.064,6.326
		h-4.263l2.978-9.49c0.583-1.828,1.061-3.354,1.446-4.561c0.379-1.203,0.679-2.209,0.894-3.02c0.212-0.812,0.357-1.447,0.437-1.9
		c0.075-0.461,0.112-0.855,0.112-1.197c0-0.668-0.229-1.006-0.688-1.006c-0.307,0-0.679,0.117-1.121,0.365
		c-0.444,0.246-0.875,0.551-1.308,0.918c-0.429,0.367-0.833,0.779-1.213,1.236c-0.386,0.461-0.668,0.904-0.85,1.33L564.875,165.06z"
		/>
	<path fill="#6B6C6C" d="M604.743,158.694h3.803l-2.608,7.012c-0.43,1.158-0.85,2.396-1.263,3.711
		c-0.41,1.314-0.778,2.578-1.101,3.801c-0.318,1.223-0.57,2.338-0.757,3.346c-0.182,1.012-0.271,1.758-0.271,2.246
		c0,0.885,0.287,1.328,0.866,1.328c0.43,0,1.048-0.443,1.859-1.328c0.809-0.887,1.715-2.031,2.725-3.439l1.193,0.965
		c-1.283,2.26-2.668,4.01-4.147,5.25c-1.483,1.234-2.909,1.852-4.283,1.852c-0.705,0-1.248-0.266-1.627-0.801
		c-0.382-0.531-0.575-1.412-0.575-2.637c0-0.273,0.01-0.594,0.023-0.961c0.012-0.369,0.054-0.855,0.115-1.463l-0.183-0.051
		c-0.46,0.859-1.004,1.641-1.629,2.363c-0.627,0.715-1.309,1.344-2.039,1.881c-0.731,0.533-1.496,0.941-2.29,1.232
		c-0.797,0.293-1.575,0.436-2.34,0.436c-1.559,0-2.771-0.586-3.643-1.762c-0.869-1.18-1.309-2.801-1.309-4.877
		c0-2.111,0.442-4.27,1.329-6.465c0.887-2.205,2.035-4.195,3.44-5.984c1.402-1.783,2.96-3.252,4.673-4.402
		c1.712-1.141,3.396-1.715,5.04-1.715c1.013,0,1.837,0.238,2.477,0.713c0.644,0.471,1.162,1.244,1.558,2.312L604.743,158.694z
		 M600.026,160.614c-1.166,0-2.363,0.535-3.601,1.604c-1.238,1.072-2.36,2.408-3.369,4.01c-1.004,1.607-1.829,3.332-2.473,5.18
		c-0.641,1.852-0.962,3.568-0.962,5.156c0,1.1,0.226,1.977,0.686,2.635c0.458,0.656,1.087,0.986,1.88,0.986
		c0.704,0,1.434-0.283,2.198-0.846c0.765-0.566,1.504-1.316,2.227-2.248c0.715-0.932,1.396-1.992,2.033-3.186
		c0.647-1.189,1.208-2.418,1.698-3.689c0.486-1.266,0.873-2.512,1.143-3.73c0.279-1.223,0.419-2.324,0.419-3.307
		c0-0.789-0.171-1.414-0.507-1.875C601.066,160.845,600.604,160.614,600.026,160.614"/>
	<path fill="#6B6C6C" d="M622.162,162.495l-3.803,12.604c-0.522,1.646-0.795,2.902-0.826,3.756c0,0.275,0.072,0.521,0.206,0.732
		c0.14,0.215,0.375,0.322,0.712,0.322c0.55,0,1.125-0.203,1.74-0.619c0.615-0.412,1.2-0.9,1.763-1.465
		c0.569-0.564,1.071-1.146,1.515-1.74c0.443-0.598,0.773-1.061,0.983-1.398l1.328,0.779c-0.518,1.037-1.174,2.037-1.968,2.998
		c-0.797,0.963-1.633,1.812-2.521,2.545c-0.887,0.738-1.78,1.322-2.68,1.768c-0.904,0.441-1.72,0.66-2.452,0.66
		c-1.068,0-1.839-0.229-2.315-0.688c-0.472-0.461-0.711-1.219-0.711-2.289c0-0.611,0.106-1.439,0.32-2.475
		c0.213-1.039,0.58-2.463,1.105-4.26l3.384-11.23h-3.939l0.598-2.107h3.989l2.381-7.885h4.213l-2.38,7.885h4.997l-0.641,2.107
		H622.162z"/>
	<path fill="#6B6C6C" d="M637.15,183.437c-1.04,0-2.012-0.203-2.909-0.619c-0.904-0.41-1.693-1.014-2.362-1.809
		c-0.672-0.793-1.204-1.766-1.604-2.912c-0.398-1.145-0.594-2.436-0.594-3.871c0-1.986,0.371-3.938,1.122-5.869
		c0.747-1.922,1.733-3.631,2.953-5.129c1.222-1.496,2.619-2.705,4.194-3.617c1.577-0.918,3.199-1.379,4.882-1.379
		c1.098,0,2.113,0.205,3.05,0.623c0.93,0.41,1.723,1.008,2.379,1.783c0.658,0.779,1.177,1.711,1.56,2.799
		c0.382,1.082,0.571,2.283,0.571,3.594c0,1.928-0.382,3.863-1.146,5.822c-0.763,1.955-1.763,3.709-3,5.271
		c-1.239,1.561-2.651,2.83-4.243,3.826C640.417,182.942,638.802,183.437,637.15,183.437 M637.424,181.146
		c1.039,0,2.072-0.533,3.097-1.602c1.02-1.072,1.938-2.422,2.745-4.057c0.811-1.633,1.469-3.412,1.971-5.34
		c0.507-1.924,0.757-3.756,0.757-5.5c0-1.621-0.282-2.734-0.846-3.346c-0.569-0.611-1.338-0.914-2.314-0.914
		c-0.675,0-1.352,0.238-2.041,0.705c-0.688,0.479-1.339,1.125-1.947,1.953c-0.61,0.826-1.186,1.771-1.719,2.84
		c-0.535,1.074-1.002,2.199-1.401,3.391c-0.392,1.189-0.7,2.41-0.91,3.641c-0.215,1.24-0.323,2.424-0.323,3.557
		c0,1.709,0.272,2.916,0.822,3.621C635.864,180.794,636.568,181.146,637.424,181.146"/>
	<path fill="#6B6C6C" d="M653.963,165.06c0.337-0.76,0.849-1.547,1.539-2.359c0.685-0.811,1.432-1.541,2.243-2.199
		c0.812-0.654,1.626-1.203,2.452-1.627c0.825-0.43,1.538-0.645,2.155-0.645c0.732,0,1.264,0.279,1.6,0.83
		c0.337,0.551,0.505,1.438,0.505,2.66c0,0.486-0.021,0.959-0.065,1.418c-0.049,0.453-0.132,0.992-0.256,1.602l0.14,0.139
		c0.367-0.887,0.885-1.754,1.559-2.609c0.671-0.859,1.398-1.611,2.18-2.268c0.778-0.658,1.568-1.197,2.38-1.609
		c0.809-0.412,1.565-0.619,2.269-0.619c0.888,0,1.623,0.283,2.223,0.848c0.599,0.568,0.892,1.262,0.892,2.086
		c0,0.799-0.25,1.457-0.754,1.973c-0.505,0.52-1.152,0.779-1.948,0.779c-0.49,0-0.88-0.096-1.17-0.277
		c-0.289-0.182-0.538-0.371-0.757-0.572c-0.214-0.197-0.411-0.389-0.593-0.572c-0.184-0.184-0.413-0.273-0.69-0.273
		c-0.576,0-1.254,0.389-2.011,1.166c-0.771,0.781-1.559,1.842-2.388,3.189c-0.823,1.34-1.641,2.916-2.452,4.715
		c-0.812,1.805-1.549,3.746-2.22,5.822l-2.062,6.326h-4.263l2.976-9.49c0.584-1.828,1.062-3.354,1.446-4.561
		c0.379-1.203,0.68-2.209,0.895-3.02c0.211-0.812,0.357-1.447,0.436-1.9c0.076-0.461,0.112-0.855,0.112-1.197
		c0-0.668-0.229-1.006-0.688-1.006c-0.306,0-0.678,0.117-1.121,0.365c-0.443,0.246-0.874,0.551-1.308,0.918
		c-0.43,0.367-0.832,0.779-1.211,1.236c-0.387,0.461-0.668,0.904-0.852,1.33L653.963,165.06z"/>
	<g>
		<path fill="#FFFFFF" d="M209.387,53.981h-12.045V42.152h38.069v11.829h-12.045v64.741h-13.979V53.981z"/>
		<path fill="#FFFFFF" d="M240.28,42.152h15.702c13.335,0,22.153,5.592,22.153,21.723c0,6.452-1.936,15.056-8.174,18.712
			l8.281,36.135h-14.089l-6.559-32.908h-3.334v32.908H240.28V42.152z M254.262,74.629h2.796c5.162,0,7.097-5.162,7.097-10.646
			c0-8.28-3.011-10.646-7.742-10.646h-2.15V74.629z"/>
		<path fill="#FFFFFF" d="M284.424,42.152h13.98v76.57h-13.98V42.152z"/>
		<path fill="#FFFFFF" d="M317.329,96.567c0,4.303,0,11.83,6.022,11.83c4.625,0,6.238-4.301,6.238-7.42
			c0-13.659-25.38-16.777-25.38-39.468c0-11.507,6.237-20.863,18.066-20.863c12.583,0,17.422,9.571,17.745,23.336h-12.475
			c0-4.301,0-11.506-5.594-11.506c-3.333,0-5.269,2.795-5.269,6.99c0,13.012,25.379,17.422,25.379,39.683
			c0,11.722-6.666,21.079-19.249,21.079c-14.948,0-17.96-13.121-17.96-23.66H317.329z"/>
		<path fill="#FFFFFF" d="M347.848,42.152h13.98v30.757h8.818V42.152h13.98v76.57h-13.98V86.244h-8.818v32.478h-13.98V42.152z"/>
		<path fill="#FFFFFF" d="M401.024,42.152h20.217l9.464,76.57h-13.442l-2.044-16.992h-11.292l-1.936,16.992H390.27L401.024,42.152z
			 M409.95,53.981h-0.216l-4.409,36.565h8.71L409.95,53.981z"/>
		<path fill="#FFFFFF" d="M467.478,53.981h-12.044V42.152h38.069v11.829h-12.045v64.741h-13.98V53.981z"/>
		<path fill="#FFFFFF" d="M516.344,40.646c12.367,0,20.434,9.571,20.434,39.79c0,30.219-8.066,39.792-20.434,39.792
			s-20.434-9.572-20.434-39.792C495.91,50.217,503.977,40.646,516.344,40.646z M511.182,88.502c0,16.561,1.936,19.895,5.162,19.895
			s5.162-3.334,5.162-19.895V72.371c0-16.562-1.936-19.895-5.162-19.895s-5.162,3.333-5.162,19.895V88.502z"/>
		<path fill="#FFFFFF" d="M543.134,42.152h17.207c8.604,0,18.928,4.732,18.928,19.357c0,8.603-3.872,15.271-12.476,17.099v0.215
			c9.572,2.259,13.98,8.926,13.98,18.605c0,13.979-9.464,21.293-19.787,21.293h-17.853V42.152z M557.114,73.553
			c6.99,0,8.818-3.226,8.818-10.108c0-8.711-1.828-10.216-8.818-10.109V73.553z M557.114,107.538c8.389,0,9.679-3.336,9.679-11.293
			c0-6.99-1.721-10.969-9.679-10.862V107.538z"/>
		<path fill="#FFFFFF" d="M586.923,42.152h13.98v76.57h-13.98V42.152z"/>
		<path fill="#FFFFFF" d="M616.99,42.152h20.217l9.464,76.57h-13.442l-2.043-16.992h-11.292l-1.936,16.992h-11.723L616.99,42.152z
			 M625.916,53.981h-0.215l-4.41,36.565h8.711L625.916,53.981z"/>
		<path fill="#FFFFFF" d="M662.356,96.567c0,4.303,0,11.83,6.022,11.83c4.624,0,6.238-4.301,6.238-7.42
			c0-13.659-25.38-16.777-25.38-39.468c0-11.507,6.237-20.863,18.066-20.863c12.582,0,17.422,9.571,17.745,23.336h-12.475
			c0-4.301,0-11.506-5.593-11.506c-3.334,0-5.27,2.795-5.27,6.99c0,13.012,25.38,17.422,25.38,39.683
			c0,11.722-6.668,21.079-19.25,21.079c-14.949,0-17.96-13.121-17.96-23.66H662.356z"/>
	</g>
</g>
</svg>
